<svg xmlns="http://www.w3.org/2000/svg" viewBox="0 0 64 64" width="128" height="128" shape-rendering="crispEdges" role="img" aria-labelledby="t">
  <title id="t">Pixel-art terminal window with a prompt and plugin blocks</title>
  <rect x="4" y="4" width="56" height="4" fill="#8b93a7"/>
  <rect x="4" y="8" width="4" height="4" fill="#8b93a7"/>
  <rect x="8" y="8" width="4" height="4" fill="#e94560"/>
  <rect x="12" y="8" width="4" height="4" fill="#f5a623"/>
  <rect x="16" y="8" width="4" height="4" fill="#4eaa25"/>
  <rect x="20" y="8" width="36" height="4" fill="#1a1f2e"/>
  <rect x="56" y="8" width="4" height="4" fill="#8b93a7"/>
  <rect x="4" y="12" width="56" height="4" fill="#8b93a7"/>
  <rect x="4" y="16" width="4" height="4" fill="#8b93a7"/>
  <rect x="8" y="16" width="48" height="4" fill="#1a1f2e"/>
  <rect x="56" y="16" width="4" height="4" fill="#8b93a7"/>
  <rect x="4" y="20" width="4" height="4" fill="#8b93a7"/>
  <rect x="8" y="20" width="4" height="4" fill="#1a1f2e"/>
  <rect x="12" y="20" width="4" height="4" fill="#e94560"/>
  <rect x="16" y="20" width="40" height="4" fill="#1a1f2e"/>
  <rect x="56" y="20" width="4" height="4" fill="#8b93a7"/>
  <rect x="4" y="24" width="4" height="4" fill="#8b93a7"/>
  <rect x="8" y="24" width="8" height="4" fill="#1a1f2e"/>
  <rect x="16" y="24" width="4" height="4" fill="#e94560"/>
  <rect x="20" y="24" width="36" height="4" fill="#1a1f2e"/>
  <rect x="56" y="24" width="4" height="4" fill="#8b93a7"/>
  <rect x="4" y="28" width="4" height="4" fill="#8b93a7"/>
  <rect x="8" y="28" width="12" height="4" fill="#1a1f2e"/>
  <rect x="20" y="28" width="4" height="4" fill="#e94560"/>
  <rect x="24" y="28" width="32" height="4" fill="#1a1f2e"/>
  <rect x="56" y="28" width="4" height="4" fill="#8b93a7"/>
  <rect x="4" y="32" width="4" height="4" fill="#8b93a7"/>
  <rect x="8" y="32" width="8" height="4" fill="#1a1f2e"/>
  <rect x="16" y="32" width="4" height="4" fill="#e94560"/>
  <rect x="20" y="32" width="36" height="4" fill="#1a1f2e"/>
  <rect x="56" y="32" width="4" height="4" fill="#8b93a7"/>
  <rect x="4" y="36" width="4" height="4" fill="#8b93a7"/>
  <rect x="8" y="36" width="4" height="4" fill="#1a1f2e"/>
  <rect x="12" y="36" width="4" height="4" fill="#e94560"/>
  <rect x="16" y="36" width="12" height="4" fill="#1a1f2e"/>
  <rect x="28" y="36" width="16" height="4" fill="#4eaa25"/>
  <rect x="44" y="36" width="12" height="4" fill="#1a1f2e"/>
  <rect x="56" y="36" width="4" height="4" fill="#8b93a7"/>
  <rect x="4" y="40" width="4" height="4" fill="#8b93a7"/>
  <rect x="8" y="40" width="48" height="4" fill="#1a1f2e"/>
  <rect x="56" y="40" width="4" height="4" fill="#8b93a7"/>
  <rect x="4" y="44" width="4" height="4" fill="#8b93a7"/>
  <rect x="8" y="44" width="4" height="4" fill="#1a1f2e"/>
  <rect x="12" y="44" width="12" height="4" fill="#4eaa25"/>
  <rect x="24" y="44" width="4" height="4" fill="#1a1f2e"/>
  <rect x="28" y="44" width="12" height="4" fill="#f5a623"/>
  <rect x="40" y="44" width="4" height="4" fill="#1a1f2e"/>
  <rect x="44" y="44" width="12" height="4" fill="#e94560"/>
  <rect x="56" y="44" width="4" height="4" fill="#8b93a7"/>
  <rect x="4" y="48" width="4" height="4" fill="#8b93a7"/>
  <rect x="8" y="48" width="4" height="4" fill="#1a1f2e"/>
  <rect x="12" y="48" width="12" height="4" fill="#4eaa25"/>
  <rect x="24" y="48" width="4" height="4" fill="#1a1f2e"/>
  <rect x="28" y="48" width="12" height="4" fill="#f5a623"/>
  <rect x="40" y="48" width="4" height="4" fill="#1a1f2e"/>
  <rect x="44" y="48" width="12" height="4" fill="#e94560"/>
  <rect x="56" y="48" width="4" height="4" fill="#8b93a7"/>
  <rect x="4" y="52" width="4" height="4" fill="#8b93a7"/>
  <rect x="8" y="52" width="48" height="4" fill="#1a1f2e"/>
  <rect x="56" y="52" width="4" height="4" fill="#8b93a7"/>
  <rect x="4" y="56" width="56" height="4" fill="#8b93a7"/>
</svg>
